<svg width="72" height="70" viewBox="0 0 72 70" fill="none" xmlns="http://www.w3.org/2000/svg">
<g filter="url(#filter0_d_370726_422)">
<path d="M62.2375 61.2692H53.4375C52.5 61.2692 51.7375 60.4828 51.7375 59.516C51.7375 58.5492 52.5 57.7629 53.4375 57.7629H62.2375C63.55 57.7629 64.6125 56.6672 64.6125 55.3137V23.4867C64.6125 22.1332 63.55 21.0375 62.2375 21.0375H21.2375C19.925 21.0375 18.8625 22.1332 18.8625 23.4867V55.3395C18.8625 56.693 19.925 57.7887 21.2375 57.7887H44.1125C45.05 57.7887 45.8125 58.575 45.8125 59.5418C45.8125 60.5086 45.05 61.2949 44.1125 61.2949H21.2375C18.0625 61.2949 15.475 58.6266 15.475 55.3524V23.4867C15.475 20.2125 18.0625 17.5442 21.2375 17.5442H62.2375C65.4125 17.5442 68 20.2125 68 23.4867V55.3395C68 58.6008 65.4125 61.2692 62.2375 61.2692Z" fill="#2D527C"/>
<path d="M27.8375 53.1094C26.2125 53.1094 24.875 51.7301 24.875 50.0543V28.759C24.875 27.0832 26.2125 25.7039 27.8375 25.7039C29.4625 25.7039 30.8 27.0832 30.8 28.759V50.0543C30.7875 51.7301 29.4625 53.1094 27.8375 53.1094Z" fill="#CEE8FA"/>
<path d="M27.8375 54.8496C25.275 54.8496 23.1875 52.6969 23.1875 50.0543V28.759C23.1875 26.1164 25.275 23.9637 27.8375 23.9637C30.4 23.9637 32.4875 26.1164 32.4875 28.759V50.0543C32.4875 52.6969 30.4 54.8496 27.8375 54.8496ZM27.8375 27.457C27.1375 27.457 26.575 28.0371 26.575 28.759V50.0543C26.575 50.7762 27.1375 51.3562 27.8375 51.3562C28.5375 51.3562 29.1 50.7762 29.1 50.0543V28.759C29.1 28.0371 28.525 27.457 27.8375 27.457Z" fill="#F0BF5F"/>
<path d="M41.7375 53.1094C40.1125 53.1094 38.775 51.7301 38.775 50.0543V28.759C38.775 27.0832 40.1125 25.7039 41.7375 25.7039C43.3625 25.7039 44.7 27.0832 44.7 28.759V50.0543C44.7 51.7301 43.375 53.1094 41.7375 53.1094Z" fill="#CEE8FA"/>
<path d="M41.7375 54.8496C39.175 54.8496 37.0875 52.6969 37.0875 50.0543V28.759C37.0875 26.1164 39.175 23.9637 41.7375 23.9637C44.3 23.9637 46.3875 26.1164 46.3875 28.759V50.0543C46.4 52.6969 44.3125 54.8496 41.7375 54.8496ZM41.7375 27.457C41.0375 27.457 40.475 28.0371 40.475 28.759V50.0543C40.475 50.7762 41.0375 51.3562 41.7375 51.3562C42.4375 51.3562 43 50.7762 43 50.0543V28.759C43 28.0371 42.4375 27.457 41.7375 27.457Z" fill="#F0BF5F"/>
<path d="M55.65 53.1094C54.025 53.1094 52.6875 51.7301 52.6875 50.0543V28.759C52.6875 27.0832 54.025 25.7039 55.65 25.7039C57.275 25.7039 58.6125 27.0832 58.6125 28.759V50.0543C58.6125 51.7301 57.275 53.1094 55.65 53.1094Z" fill="#CEE8FA"/>
<path d="M55.65 54.8496C53.0875 54.8496 51 52.6969 51 50.0543V28.759C51 26.1164 53.0875 23.9637 55.65 23.9637C58.2125 23.9637 60.3 26.1164 60.3 28.759V50.0543C60.3 52.6969 58.2125 54.8496 55.65 54.8496ZM55.65 27.457C54.95 27.457 54.3875 28.0371 54.3875 28.759V50.0543C54.3875 50.7762 54.95 51.3562 55.65 51.3562C56.35 51.3562 56.9125 50.7762 56.9125 50.0543V28.759C56.9125 28.0371 56.35 27.457 55.65 27.457Z" fill="#F0BF5F"/>
<path d="M17.175 29.7129H11.2875C10.35 29.7129 9.58746 28.9266 9.58746 27.9598C9.58746 26.993 10.35 26.2066 11.2875 26.2066H17.175C18.1125 26.2066 18.875 26.993 18.875 27.9598C18.875 28.9266 18.1125 29.7129 17.175 29.7129Z" fill="#2D527C"/>
<path d="M17.175 52.5938H11.2875C10.35 52.5938 9.58746 51.8074 9.58746 50.8406C9.58746 49.8738 10.35 49.0875 11.2875 49.0875H17.175C18.1125 49.0875 18.875 49.8738 18.875 50.8406C18.875 51.8074 18.1125 52.5938 17.175 52.5938Z" fill="#2D527C"/>
<path d="M9.92498 32.4199C8.98748 32.4199 8.22498 31.6336 8.22498 30.6668V11.9754C8.22498 11.0086 8.98748 10.2223 9.92498 10.2223C10.8625 10.2223 11.625 11.0215 11.625 11.9754V30.6668C11.625 31.6336 10.8625 32.4199 9.92498 32.4199Z" fill="#F0BF5F"/>
<path d="M9.92498 61.2691C8.98748 61.2691 8.22498 60.4828 8.22498 59.516V39.4066C8.22498 38.4398 8.98748 37.6535 9.92498 37.6535C10.8625 37.6535 11.625 38.4398 11.625 39.4066V59.516C11.625 60.4828 10.8625 61.2691 9.92498 61.2691Z" fill="#2D527C"/>
<path d="M14.175 6.48396H5.70001V15.9199H14.175V6.48396Z" fill="#CEE8FA"/>
<path d="M14.1625 17.6602H5.7C4.7625 17.6602 4 16.8738 4 15.9071V6.48401C4 5.51721 4.7625 4.73088 5.7 4.73088H14.175C15.1125 4.73088 15.875 5.51721 15.875 6.48401V15.9199C15.8625 16.8738 15.1 17.6602 14.1625 17.6602ZM7.3875 14.1668H12.475V8.22424H7.3875V14.1668Z" fill="#2D527C"/>
</g>
<defs>
<filter id="filter0_d_370726_422" x="0" y="0" width="72" height="74" filterUnits="userSpaceOnUse" color-interpolation-filters="sRGB">
<feFlood flood-opacity="0" result="BackgroundImageFix"/>
<feColorMatrix in="SourceAlpha" type="matrix" values="0 0 0 0 0 0 0 0 0 0 0 0 0 0 0 0 0 0 127 0" result="hardAlpha"/>
<feOffset dy="4"/>
<feGaussianBlur stdDeviation="2"/>
<feComposite in2="hardAlpha" operator="out"/>
<feColorMatrix type="matrix" values="0 0 0 0 0 0 0 0 0 0 0 0 0 0 0 0 0 0 0.25 0"/>
<feBlend mode="normal" in2="BackgroundImageFix" result="effect1_dropShadow_370726_422"/>
<feBlend mode="normal" in="SourceGraphic" in2="effect1_dropShadow_370726_422" result="shape"/>
</filter>
</defs>
</svg>
